<?xml version="1.0" encoding="UTF-8"?>
<svg id="Layer_1" xmlns="http://www.w3.org/2000/svg" version="1.1" viewBox="0 0 512 113.69">
  <!-- Generator: Adobe Illustrator 29.6.1, SVG Export Plug-In . SVG Version: 2.1.1 Build 9)  -->
  <defs>
    <style>
      .st0 {
        opacity: .2;
      }

      .st0, .st1 {
        fill: #1b3236;
      }

      .st2 {
        isolation: isolate;
      }

      .st3 {
        fill: #4abd96;
      }
    </style>
  </defs>
  <g>
    <path class="st3" d="M140.26,108.44c-.87,0-1.74-.12-2.61-.35-.86-.23-1.69-.63-2.46-1.2-.16-.1-.26-.22-.31-.36-.05-.15-.06-.3-.03-.45.03-.16.1-.29.2-.39s.24-.17.39-.19c.16-.02.32.03.5.15.76.5,1.5.85,2.21,1.05.72.2,1.44.29,2.16.29,1.18,0,2.09-.22,2.71-.67.62-.45.93-1.05.93-1.81,0-.62-.2-1.1-.6-1.44-.4-.34-1.04-.62-1.94-.83l-2.54-.58c-1.22-.27-2.13-.71-2.71-1.33-.58-.61-.87-1.4-.87-2.38,0-.83.22-1.56.66-2.19.44-.62,1.06-1.1,1.86-1.44.81-.34,1.73-.51,2.78-.51.85,0,1.67.13,2.45.38.78.25,1.46.64,2.04,1.17.16.12.26.25.31.41.05.16.05.31,0,.45-.05.15-.13.27-.25.36-.12.1-.25.15-.41.15s-.32-.06-.5-.17c-.56-.43-1.16-.74-1.78-.95-.62-.2-1.25-.31-1.89-.31-1.13,0-2,.23-2.61.7-.61.47-.92,1.1-.92,1.89,0,.6.19,1.09.57,1.46s.98.65,1.79.85l2.54.58c1.26.29,2.2.72,2.83,1.3.62.57.93,1.35.93,2.32,0,1.24-.49,2.23-1.47,2.96-.98.73-2.31,1.09-3.98,1.09Z"/>
    <path class="st3" d="M149.47,113.63c-.29,0-.51-.08-.67-.23-.16-.16-.23-.38-.23-.67v-17.92c0-.31.08-.54.23-.7s.38-.23.67-.23c.27,0,.49.08.64.23s.23.39.23.7v2.97l-.32-.17c.33-1.17.96-2.09,1.89-2.77.93-.68,2.06-1.02,3.38-1.02s2.37.3,3.31.9c.94.6,1.67,1.45,2.19,2.54.51,1.09.77,2.38.77,3.88s-.26,2.79-.77,3.89c-.52,1.1-1.24,1.94-2.17,2.54-.93.59-2.04.89-3.32.89s-2.45-.34-3.38-1.02c-.93-.68-1.56-1.58-1.89-2.71h.32v8.01c0,.29-.08.51-.23.67-.16.15-.37.23-.64.23ZM155.04,106.96c.95,0,1.78-.23,2.49-.68.71-.46,1.26-1.12,1.65-2,.39-.87.58-1.92.58-3.15,0-1.85-.43-3.27-1.28-4.28s-2-1.52-3.44-1.52c-.95,0-1.78.23-2.49.68s-1.26,1.12-1.65,1.98c-.39.86-.58,1.91-.58,3.13,0,1.87.43,3.3,1.28,4.31s2,1.51,3.44,1.51Z"/>
    <path class="st3" d="M165.21,108.39c-.29,0-.51-.08-.67-.23s-.23-.38-.23-.67v-12.68c0-.31.08-.54.23-.7s.38-.23.67-.23c.27,0,.48.08.63.23s.22.39.22.7v2.59h-.29c.35-1.15.98-2.03,1.88-2.65.9-.62,1.99-.94,3.25-.96.23-.02.43.03.58.15.16.12.23.3.23.55.02.27-.04.48-.18.63s-.36.24-.67.28l-.41.03c-1.38.14-2.45.59-3.21,1.37-.76.78-1.14,1.83-1.14,3.15v7.55c0,.29-.07.52-.22.67s-.37.23-.68.23Z"/>
    <path class="st3" d="M179.23,108.44c-1.46,0-2.71-.29-3.76-.87s-1.86-1.42-2.42-2.51c-.56-1.09-.85-2.38-.85-3.88s.28-2.76.85-3.86c.56-1.1,1.35-1.96,2.35-2.58,1-.62,2.15-.93,3.45-.93.95,0,1.79.16,2.52.48.73.32,1.35.78,1.87,1.37.51.59.91,1.31,1.18,2.16s.41,1.8.41,2.87c0,.27-.07.48-.22.61-.15.14-.35.2-.6.2h-10.52v-1.31h10.23l-.47.38c0-1.13-.17-2.08-.5-2.87-.33-.79-.82-1.39-1.47-1.82-.65-.43-1.45-.64-2.4-.64-1.07,0-1.97.25-2.71.74-.74.5-1.29,1.18-1.66,2.04-.37.86-.55,1.86-.55,2.99v.15c0,1.86.46,3.3,1.37,4.3.91,1,2.2,1.5,3.85,1.5.72,0,1.41-.1,2.08-.29.67-.19,1.33-.52,1.97-.99.19-.14.38-.2.57-.2s.34.05.47.15c.13.1.21.22.26.36.05.15.04.3-.03.47s-.2.32-.39.45c-.62.51-1.37.89-2.24,1.15-.87.26-1.75.39-2.62.39Z"/>
    <path class="st3" d="M193.56,113.69c-1.05,0-2.06-.13-3.04-.39-.98-.26-1.87-.68-2.67-1.27-.16-.1-.26-.22-.31-.38-.05-.16-.05-.31-.01-.45.04-.15.11-.28.22-.39s.23-.19.38-.2c.15-.02.3,0,.45.09.85.56,1.68.96,2.46,1.18.79.22,1.61.33,2.46.33,1.42,0,2.5-.39,3.23-1.18.74-.79,1.11-1.91,1.11-3.37v-3.61h.29c-.29,1.2-.91,2.15-1.86,2.83s-2.08,1.02-3.38,1.02-2.43-.3-3.38-.89c-.95-.59-1.69-1.42-2.2-2.48-.51-1.06-.77-2.29-.77-3.69,0-1.05.15-2,.44-2.86.29-.85.71-1.59,1.27-2.21.55-.62,1.22-1.1,2-1.44.78-.34,1.66-.51,2.65-.51,1.3,0,2.43.35,3.38,1.03s1.56,1.62,1.84,2.78l-.29.18v-3c0-.31.08-.54.23-.7.15-.16.37-.23.64-.23.29,0,.51.08.66.23s.22.39.22.7v12.59c0,2.08-.5,3.65-1.51,4.71-1.01,1.06-2.51,1.59-4.49,1.59ZM193.1,106.38c.97,0,1.81-.23,2.52-.68.71-.46,1.26-1.1,1.65-1.92.39-.83.58-1.8.58-2.93,0-1.69-.43-3.03-1.28-4.02-.86-.99-2.01-1.49-3.47-1.49-.97,0-1.82.22-2.54.67s-1.27,1.08-1.65,1.91-.57,1.8-.57,2.93c0,1.69.43,3.04,1.28,4.04.85,1,2.01,1.5,3.47,1.5Z"/>
    <path class="st3" d="M208.86,108.44c-1.32,0-2.47-.3-3.44-.9-.97-.6-1.72-1.45-2.26-2.53-.54-1.09-.8-2.38-.8-3.88,0-1.11.15-2.11.45-3,.3-.89.74-1.67,1.31-2.32.57-.65,1.26-1.15,2.07-1.49.81-.34,1.69-.51,2.67-.51,1.34,0,2.5.3,3.47.9.97.6,1.72,1.45,2.26,2.55.53,1.1.8,2.39.8,3.86,0,1.13-.15,2.14-.45,3.03-.3.89-.74,1.66-1.31,2.3s-1.26,1.13-2.05,1.47c-.8.34-1.7.51-2.71.51ZM208.86,106.96c.97,0,1.81-.23,2.52-.68.71-.46,1.25-1.12,1.63-2,.38-.87.57-1.92.57-3.15,0-1.85-.42-3.27-1.27-4.28s-2-1.52-3.45-1.52c-.95,0-1.78.23-2.49.68s-1.25,1.12-1.63,1.98c-.38.86-.57,1.91-.57,3.13,0,1.87.43,3.3,1.28,4.31.85,1.01,1.99,1.51,3.41,1.51Z"/>
    <path class="st3" d="M223.08,108.39c-.29,0-.53-.08-.73-.23s-.37-.39-.52-.7l-5.25-12.24c-.1-.23-.13-.45-.1-.66.03-.2.12-.37.26-.5.15-.13.35-.19.63-.19.25,0,.44.06.57.18s.24.3.33.55l5.19,12.53h-.73l5.22-12.53c.1-.25.21-.44.35-.55.14-.12.33-.18.58-.18s.44.06.57.19.2.29.22.48c.02.19-.02.41-.12.64l-5.25,12.27c-.12.31-.28.54-.5.7-.21.15-.46.23-.73.23Z"/>
    <path class="st3" d="M237.25,108.44c-1.32,0-2.47-.3-3.44-.9-.97-.6-1.72-1.45-2.26-2.53-.54-1.09-.8-2.38-.8-3.88,0-1.11.15-2.11.45-3,.3-.89.74-1.67,1.31-2.32.57-.65,1.26-1.15,2.07-1.49.81-.34,1.69-.51,2.67-.51,1.34,0,2.5.3,3.47.9.97.6,1.72,1.45,2.26,2.55.53,1.1.8,2.39.8,3.86,0,1.13-.15,2.14-.45,3.03-.3.89-.74,1.66-1.31,2.3s-1.26,1.13-2.05,1.47c-.8.34-1.7.51-2.71.51ZM237.25,106.96c.97,0,1.81-.23,2.52-.68.71-.46,1.25-1.12,1.63-2,.38-.87.57-1.92.57-3.15,0-1.85-.42-3.27-1.27-4.28s-2-1.52-3.45-1.52c-.95,0-1.78.23-2.49.68s-1.25,1.12-1.63,1.98c-.38.86-.57,1.91-.57,3.13,0,1.87.43,3.3,1.28,4.31.85,1.01,1.99,1.51,3.41,1.51Z"/>
    <path class="st3" d="M247.44,108.39c-.29,0-.51-.08-.67-.23s-.23-.38-.23-.67v-12.68c0-.31.08-.54.23-.7s.38-.23.67-.23c.27,0,.48.08.63.23s.22.39.22.7v2.59h-.29c.35-1.15.98-2.03,1.88-2.65.9-.62,1.99-.94,3.25-.96.23-.02.43.03.58.15.16.12.23.3.23.55.02.27-.04.48-.18.63s-.36.24-.67.28l-.41.03c-1.38.14-2.45.59-3.21,1.37-.76.78-1.14,1.83-1.14,3.15v7.55c0,.29-.07.52-.22.67s-.37.23-.68.23Z"/>
    <path class="st3" d="M256.39,90.44c-.41,0-.72-.11-.95-.32-.22-.21-.33-.51-.33-.9s.11-.68.33-.89c.22-.2.54-.31.95-.31s.72.1.95.31c.22.2.33.5.33.89s-.11.69-.33.9c-.22.21-.54.32-.95.32ZM256.39,108.33c-.29,0-.51-.09-.67-.26-.16-.17-.23-.41-.23-.7v-12.47c0-.31.08-.54.23-.7.16-.15.38-.23.67-.23.27,0,.49.08.64.23.16.16.23.39.23.7v12.47c0,.29-.07.52-.22.7-.15.18-.36.26-.66.26Z"/>
    <path class="st3" d="M272.88,108.44c-1.32,0-2.47-.3-3.44-.9-.97-.6-1.72-1.45-2.26-2.53-.54-1.09-.8-2.38-.8-3.88,0-1.11.15-2.11.45-3,.3-.89.74-1.67,1.31-2.32.57-.65,1.26-1.15,2.07-1.49.81-.34,1.69-.51,2.67-.51,1.34,0,2.5.3,3.47.9.97.6,1.72,1.45,2.26,2.55.53,1.1.8,2.39.8,3.86,0,1.13-.15,2.14-.45,3.03-.3.89-.74,1.66-1.31,2.3s-1.26,1.13-2.05,1.47c-.8.34-1.7.51-2.71.51ZM272.88,106.96c.97,0,1.81-.23,2.52-.68.71-.46,1.25-1.12,1.63-2,.38-.87.57-1.92.57-3.15,0-1.85-.42-3.27-1.27-4.28-.85-1.01-2-1.52-3.45-1.52-.95,0-1.78.23-2.49.68s-1.25,1.12-1.63,1.98c-.38.86-.57,1.91-.57,3.13,0,1.87.43,3.3,1.28,4.31.85,1.01,1.99,1.51,3.41,1.51Z"/>
    <path class="st3" d="M287.57,108.44c-1.26,0-2.37-.3-3.31-.89s-1.67-1.44-2.18-2.54c-.52-1.1-.77-2.39-.77-3.89s.25-2.79.76-3.88c.5-1.09,1.23-1.93,2.17-2.54.94-.6,2.05-.9,3.34-.9s2.45.34,3.38,1.02c.93.68,1.55,1.59,1.86,2.74h-.32v-9.18c0-.31.08-.54.23-.68.15-.15.37-.22.64-.22.29,0,.51.07.67.22s.23.37.23.68v19.09c0,.29-.08.52-.23.67s-.37.23-.64.23c-.29,0-.52-.08-.67-.23-.16-.15-.23-.38-.23-.67v-3l.32.2c-.31,1.15-.93,2.06-1.86,2.74-.93.68-2.06,1.02-3.38,1.02ZM287.8,106.96c.97,0,1.81-.23,2.52-.68.71-.46,1.25-1.12,1.63-2,.38-.87.57-1.92.57-3.15,0-1.85-.42-3.27-1.27-4.28s-2-1.52-3.45-1.52c-.95,0-1.78.23-2.49.68s-1.25,1.12-1.63,1.98c-.38.86-.57,1.91-.57,3.13,0,1.87.43,3.3,1.28,4.31.85,1.01,1.99,1.51,3.41,1.51Z"/>
    <path class="st3" d="M298.82,108.39c-.29,0-.52-.08-.67-.23s-.23-.38-.23-.67v-19.09c0-.31.08-.54.23-.68s.38-.22.67-.22c.27,0,.49.07.64.22.15.15.23.37.23.68v12.09h.06l6.53-5.97c.21-.19.4-.35.57-.47.16-.12.38-.18.65-.18.23,0,.42.07.55.2.13.14.2.3.19.48-.01.19-.11.38-.31.6l-6.94,6.32v-1.14l7.55,6.7c.23.21.36.42.36.63.01.2-.05.37-.19.51-.14.14-.32.2-.55.2-.25,0-.47-.05-.64-.16-.18-.11-.39-.28-.64-.51l-7.14-6.29h-.06v6.06c0,.6-.29.9-.87.9Z"/>
    <path class="st3" d="M311.91,108.39c-.29,0-.52-.08-.67-.23s-.23-.38-.23-.67v-12.68c0-.31.08-.54.23-.7s.38-.23.67-.23c.27,0,.48.08.63.23s.22.39.22.7v2.59h-.29c.35-1.15.98-2.03,1.88-2.65.9-.62,1.99-.94,3.25-.96.23-.02.43.03.58.15.15.12.23.3.23.55.02.27-.04.48-.18.63s-.36.24-.67.28l-.41.03c-1.38.14-2.45.59-3.21,1.37-.76.78-1.14,1.83-1.14,3.15v7.55c0,.29-.07.52-.22.67-.15.15-.37.23-.68.23Z"/>
    <path class="st3" d="M320.85,90.44c-.41,0-.72-.11-.95-.32-.22-.21-.34-.51-.34-.9s.11-.68.34-.89.54-.31.95-.31.72.1.95.31.34.5.34.89-.11.69-.34.9c-.22.21-.54.32-.95.32ZM320.85,108.33c-.29,0-.52-.09-.67-.26-.16-.17-.23-.41-.23-.7v-12.47c0-.31.08-.54.23-.7.16-.15.38-.23.67-.23.27,0,.49.08.64.23.15.16.23.39.23.7v12.47c0,.29-.07.52-.22.7-.15.18-.36.26-.65.26Z"/>
    <path class="st3" d="M330.73,108.44c-1.05,0-1.92-.19-2.62-.58-.7-.39-1.22-.95-1.57-1.68-.35-.73-.52-1.63-.52-2.7v-7.98h-2.16c-.25,0-.46-.06-.61-.19-.16-.13-.23-.31-.23-.54,0-.21.08-.38.23-.51.15-.13.36-.19.61-.19h2.16v-3.64c0-.31.08-.54.23-.68.16-.15.38-.22.67-.22.27,0,.49.07.64.22.16.15.23.37.23.68v3.64h3.93c.27,0,.47.06.61.19s.2.3.2.51c0,.23-.07.41-.2.54s-.34.19-.61.19h-3.93v7.75c0,1.18.24,2.09.73,2.71.49.62,1.29.93,2.42.93.39,0,.71-.04.98-.13.26-.09.48-.13.66-.13.13,0,.26.06.36.18.11.12.16.3.16.55,0,.16-.03.31-.1.47s-.19.25-.36.29c-.21.08-.5.15-.87.22s-.71.1-1.02.1Z"/>
    <path class="st3" d="M339.62,108.44c-1.32,0-2.47-.3-3.44-.9-.97-.6-1.73-1.45-2.26-2.53-.54-1.09-.8-2.38-.8-3.88,0-1.11.15-2.11.45-3,.3-.89.74-1.67,1.31-2.32s1.26-1.15,2.07-1.49c.81-.34,1.69-.51,2.67-.51,1.34,0,2.5.3,3.47.9.97.6,1.72,1.45,2.26,2.55.53,1.1.8,2.39.8,3.86,0,1.13-.15,2.14-.45,3.03s-.74,1.66-1.31,2.3c-.57.64-1.26,1.13-2.05,1.47-.8.34-1.7.51-2.71.51ZM339.62,106.96c.97,0,1.81-.23,2.52-.68.71-.46,1.25-1.12,1.63-2,.38-.87.57-1.92.57-3.15,0-1.85-.42-3.27-1.27-4.28s-2-1.52-3.45-1.52c-.95,0-1.78.23-2.49.68s-1.25,1.12-1.63,1.98c-.38.86-.57,1.91-.57,3.13,0,1.87.43,3.3,1.28,4.31.85,1.01,1.99,1.51,3.41,1.51Z"/>
  </g>
  <g>
    <g class="st2">
      <path class="st1" d="M141.27,71.24c-1.81,0-3.31-.45-4.5-1.36-1.19-.9-1.98-2.07-2.36-3.5-.38-1.43-.36-2.97.07-4.64.43-1.66,1.31-3.26,2.64-4.78l36.98-46.4v4.28h-33.69c-2.19,0-3.88-.59-5.07-1.78-1.19-1.19-1.78-2.83-1.78-4.93s.59-3.85,1.78-5c1.19-1.14,2.88-1.71,5.07-1.71h42.26c2.09,0,3.81.45,5.14,1.36,1.33.91,2.21,2.07,2.64,3.5.43,1.43.45,2.95.07,4.57-.38,1.62-1.24,3.14-2.57,4.57l-37.69,47.11v-4.71h35.69c4.57,0,6.85,2.24,6.85,6.71,0,2.09-.6,3.74-1.78,4.93-1.19,1.19-2.88,1.78-5.07,1.78h-44.69Z"/>
      <path class="st1" d="M226.93,72.67c-5.05,0-9.54-.98-13.49-2.93-3.95-1.95-7.04-4.59-9.28-7.92-2.24-3.33-3.35-7.09-3.35-11.28,0-5.14,1.33-9.21,4-12.21,2.66-3,7-5.16,12.99-6.5,6-1.33,14.04-2,24.13-2h7.14v10.28h-7c-5.9,0-10.61.29-14.13.86-3.52.57-6.02,1.55-7.5,2.93-1.48,1.38-2.21,3.31-2.21,5.78,0,3.14,1.09,5.71,3.28,7.71,2.19,2,5.23,3,9.14,3,3.14,0,5.92-.74,8.35-2.21,2.43-1.47,4.35-3.5,5.78-6.07,1.43-2.57,2.14-5.52,2.14-8.85v-16.42c0-4.76-1.05-8.19-3.14-10.28-2.09-2.09-5.62-3.14-10.56-3.14-2.76,0-5.74.33-8.92,1-3.19.67-6.55,1.81-10.07,3.43-1.81.86-3.4,1.1-4.78.71-1.38-.38-2.45-1.16-3.21-2.36-.76-1.19-1.14-2.5-1.14-3.93s.38-2.83,1.14-4.21c.76-1.38,2.05-2.4,3.85-3.07,4.38-1.81,8.59-3.09,12.63-3.85C226.76.38,230.45,0,233.79,0,240.64,0,246.28,1.05,250.7,3.14c4.43,2.09,7.73,5.26,9.92,9.49,2.19,4.24,3.28,9.69,3.28,16.35v34.26c0,2.95-.71,5.21-2.14,6.78-1.43,1.57-3.48,2.36-6.14,2.36s-4.74-.79-6.21-2.36c-1.48-1.57-2.21-3.83-2.21-6.78v-6.85h1.14c-.67,3.33-1.98,6.21-3.93,8.64-1.95,2.43-4.4,4.31-7.35,5.64-2.95,1.33-6.33,2-10.14,2Z"/>
      <path class="st1" d="M307.31,72.67c-5.81,0-10.62-1.07-14.42-3.21-3.81-2.14-6.64-5.35-8.49-9.64-1.86-4.28-2.78-9.61-2.78-15.99V9.28c0-3.04.76-5.3,2.28-6.78,1.52-1.47,3.71-2.21,6.57-2.21s5.07.74,6.64,2.21c1.57,1.48,2.36,3.74,2.36,6.78v34.84c0,4.95,1,8.62,3,10.99,2,2.38,5.19,3.57,9.57,3.57,4.76,0,8.66-1.64,11.71-4.93,3.05-3.28,4.57-7.64,4.57-13.06V9.28c0-3.04.76-5.3,2.28-6.78,1.52-1.47,3.71-2.21,6.57-2.21s5.07.74,6.64,2.21c1.57,1.48,2.36,3.74,2.36,6.78v53.97c0,6.09-2.91,9.14-8.71,9.14-2.76,0-4.9-.79-6.43-2.36-1.52-1.57-2.28-3.83-2.28-6.78v-10.85l2,4.28c-2,5.14-5.02,9.09-9.07,11.85-4.05,2.76-8.83,4.14-14.35,4.14Z"/>
      <path class="st1" d="M373.56,98.08c-2.85,0-5.05-.76-6.57-2.28-1.52-1.52-2.28-3.76-2.28-6.71V9.28c0-2.95.76-5.19,2.28-6.71,1.52-1.52,3.66-2.28,6.42-2.28s5.04.76,6.57,2.28c1.52,1.52,2.28,3.76,2.28,6.71v11.14l-1.57-4.28c1.43-4.85,4.35-8.76,8.78-11.71C393.9,1.48,399.06,0,404.97,0s11.44,1.48,16.06,4.43c4.62,2.95,8.21,7.12,10.78,12.49,2.57,5.38,3.85,11.83,3.85,19.35s-1.28,13.87-3.85,19.35c-2.57,5.47-6.14,9.69-10.71,12.63-4.57,2.95-9.95,4.43-16.13,4.43-5.81,0-10.9-1.45-15.28-4.35-4.38-2.9-7.33-6.69-8.85-11.35h1.71v32.12c0,2.95-.79,5.19-2.36,6.71-1.57,1.52-3.78,2.28-6.64,2.28ZM399.97,59.11c3.52,0,6.62-.86,9.28-2.57,2.66-1.71,4.73-4.26,6.21-7.64,1.47-3.38,2.21-7.59,2.21-12.63,0-7.61-1.62-13.3-4.85-17.06-3.24-3.76-7.52-5.64-12.85-5.64-3.52,0-6.62.83-9.28,2.5-2.66,1.67-4.73,4.19-6.21,7.57-1.48,3.38-2.21,7.59-2.21,12.64,0,7.52,1.62,13.21,4.85,17.06,3.23,3.85,7.52,5.78,12.85,5.78Z"/>
      <path class="st1" d="M466.64,98.08c-2.09,0-3.81-.55-5.14-1.64-1.33-1.1-2.12-2.55-2.36-4.35-.24-1.81.07-3.71.93-5.71l9.71-21.56v7.42l-25.99-60.11c-.86-2.09-1.14-4.04-.86-5.85.29-1.81,1.17-3.26,2.64-4.35,1.48-1.09,3.5-1.64,6.07-1.64,2.19,0,3.95.5,5.28,1.5,1.33,1,2.52,2.88,3.57,5.64l19.27,48.11h-4.28l19.7-48.26c1.05-2.66,2.28-4.5,3.71-5.5,1.43-1,3.33-1.5,5.71-1.5,2.09,0,3.76.55,5,1.64,1.24,1.1,2,2.52,2.28,4.28.29,1.76-.05,3.69-1,5.78l-34.69,79.24c-1.24,2.66-2.57,4.47-4,5.43-1.43.95-3.28,1.43-5.57,1.43Z"/>
    </g>
    <g>
      <path class="st3" d="M88.14,68.91l-11.62-21.18c-2.41-4.39-8.12-5.66-12.17-2.72L9.17,85.15c-3.57,2.6-8.8.42-9.15-3.98C0,80.99,0,80.81,0,80.64V7.69C0,2.24,6.34-.77,10.57,2.68l33.82,27.6c2.38,1.94,5.81,1.94,8.19,0L86.39,2.68c4.23-3.45,10.57-.44,10.57,5.02v59.01s0,.09,0,.14c-.1,4.76-6.53,6.24-8.82,2.07Z"/>
      <path class="st0" d="M8.7,85.46l31.3-40.82c2.7-3.52,7.96-3.67,10.85-.3l5.53,6.43L8.7,85.46Z"/>
    </g>
  </g>
</svg>